HIERARCHY
ROOT Hips
{
	OFFSET -0.001795 -0.223333 0.028219
	CHANNELS 6 Xposition Yposition Zposition Zrotation Yrotation Xrotation
	JOINT LeftUpLeg
	{
		OFFSET 0.069520 -0.091406 -0.006815
		CHANNELS 3 Zrotation Yrotation Xrotation
		JOINT LeftLeg
		{
			OFFSET 0.034277 -0.375199 -0.004496
			CHANNELS 3 Zrotation Yrotation Xrotation
			JOINT LeftFoot
			{
				OFFSET -0.013596 -0.397961 -0.043693
				CHANNELS 3 Zrotation Yrotation Xrotation
				JOINT LeftToe
				{
					OFFSET 0.026358 -0.055791 0.119288
					CHANNELS 3 Zrotation Yrotation Xrotation
					End Site
					{
						OFFSET 0.000000 0.000000 0.000000
					}
				}
			}
		}
	}
	JOINT RightUpLeg
	{
		OFFSET -0.067670 -0.090522 -0.004320
		CHANNELS 3 Zrotation Yrotation Xrotation
		JOINT RightLeg
		{
			OFFSET -0.038290 -0.382569 -0.008850
			CHANNELS 3 Zrotation Yrotation Xrotation
			JOINT RightFoot
			{
				OFFSET 0.015774 -0.398415 -0.042312
				CHANNELS 3 Zrotation Yrotation Xrotation
				JOINT RightToe
				{
					OFFSET -0.025372 -0.048144 0.123348
					CHANNELS 3 Zrotation Yrotation Xrotation
					End Site
					{
						OFFSET 0.000000 0.000000 0.000000
					}
				}
			}
		}
	}
	JOINT Spine
	{
		OFFSET -0.002533 0.108963 -0.026696
		CHANNELS 3 Zrotation Yrotation Xrotation
		JOINT Spine1
		{
			OFFSET 0.005487 0.135180 0.001092
			CHANNELS 3 Zrotation Yrotation Xrotation
			JOINT Spine2
			{
				OFFSET 0.001457 0.052922 0.025425
				CHANNELS 3 Zrotation Yrotation Xrotation
				JOINT Neck
				{
					OFFSET -0.002778 0.213870 -0.042857
					CHANNELS 3 Zrotation Yrotation Xrotation
					JOINT Head
					{
						OFFSET 0.005152 0.064970 0.051349
						CHANNELS 3 Zrotation Yrotation Xrotation
						End Site
						{
							OFFSET 0.000000 0.000000 0.000000
						}
					}
				}
				JOINT LeftShoulder
				{
					OFFSET 0.078845 0.121749 -0.034090
					CHANNELS 3 Zrotation Yrotation Xrotation
					JOINT LeftArm
					{
						OFFSET 0.090977 0.030469 -0.008868
						CHANNELS 3 Zrotation Yrotation Xrotation
						JOINT LeftForeArm
						{
							OFFSET 0.259612 -0.012772 -0.027456
							CHANNELS 3 Zrotation Yrotation Xrotation
							JOINT LeftHand
							{
								OFFSET 0.249234 0.008986 -0.001171
								CHANNELS 3 Zrotation Yrotation Xrotation
								End Site
								{
									OFFSET 0.000000 0.000000 0.000000
								}
							}
						}
					}
				}
				JOINT RightShoulder
				{
					OFFSET -0.081759 0.118833 -0.038615
					CHANNELS 3 Zrotation Yrotation Xrotation
					JOINT RightArm
					{
						OFFSET -0.096012 0.032551 -0.009143
						CHANNELS 3 Zrotation Yrotation Xrotation
						JOINT RightForeArm
						{
							OFFSET -0.253742 -0.013329 -0.021401
							CHANNELS 3 Zrotation Yrotation Xrotation
							JOINT RightHand
							{
								OFFSET -0.255298 0.007772 -0.005559
								CHANNELS 3 Zrotation Yrotation Xrotation
								End Site
								{
									OFFSET 0.000000 0.000000 0.000000
								}
							}
						}
					}
				}
			}
		}
	}
}
MOTION
Frames: 5
Frame Time: 0.050000
-0.111226 0.210961 -0.710473 -5.078318 1.757274 -74.807496 18.534946 3.452245 -42.853630 -4.189172 -4.794366 68.663792 -4.599684 3.287950 26.581777 0.000000 0.000000 0.000000 -16.630441 -4.289729 -34.620291 7.021141 -1.447469 61.851294 -7.698649 -17.622392 30.626144 0.000000 0.000000 0.000000 -1.830929 -0.104314 -28.191619 -0.222918 -3.459974 43.752071 1.764841 11.357454 -2.969696 -10.798610 7.917120 67.502585 0.000000 0.000000 0.000000 -7.648516 -5.247898 0.455532 -0.569813 7.047204 0.207742 -167.027945 -5.622000 55.964540 0.000000 0.000000 0.000000 4.728821 18.362622 8.618242 -17.228032 -20.860183 7.435431 174.256830 28.744852 171.354197 0.000000 0.000000 0.000000
-0.115255 0.219923 -0.700469 -5.716439 2.213561 -73.926653 19.279001 3.555151 -45.121839 -7.139832 -2.710710 73.078061 -2.361496 4.750353 22.986410 0.000000 0.000000 0.000000 -16.056300 -4.078980 -33.462876 6.150165 -1.041695 62.953839 -8.072685 -17.991549 25.453164 0.000000 0.000000 0.000000 -1.691609 -0.135510 -25.568412 -0.796546 -4.486193 52.851059 -0.594666 12.259391 -13.327532 -9.668260 2.531290 69.227431 0.000000 0.000000 0.000000 -8.675475 -5.399258 0.178046 1.387213 9.998996 0.590108 -163.221099 -5.080774 39.054611 0.000000 0.000000 0.000000 6.053549 16.236667 7.815077 -16.481464 -23.287966 7.568193 173.633957 28.029861 172.858900 0.000000 0.000000 0.000000
-0.119504 0.219572 -0.689412 -5.610668 2.546818 -71.870680 20.757786 4.102129 -48.993975 -9.341278 -0.574360 79.520582 -0.772611 4.635306 16.017271 0.000000 0.000000 0.000000 -16.042904 -4.094505 -34.858806 7.130594 -1.834846 64.375967 -9.726161 -20.131184 20.153440 0.000000 0.000000 0.000000 -0.776014 0.240804 -22.689363 -2.148486 -5.250415 68.036932 -3.750712 11.162040 -28.537946 -8.769903 0.295371 68.617693 0.000000 0.000000 0.000000 -10.451401 -2.246242 -1.302415 1.440846 13.291208 0.619029 -155.357152 -7.000389 40.205824 0.000000 0.000000 0.000000 5.931563 13.519647 5.929089 -15.796132 -29.605474 8.230539 168.920427 25.269206 156.084144 0.000000 0.000000 0.000000
-0.124135 0.219176 -0.678179 -5.296133 2.703205 -70.586258 23.441603 5.493825 -51.562187 -11.492986 1.777326 83.047666 -0.158050 5.093174 14.735360 0.000000 0.000000 0.000000 -15.767715 -4.009999 -36.573864 7.645048 -2.199834 66.853893 -10.855012 -21.964736 16.453668 0.000000 0.000000 0.000000 -0.587593 0.292917 -15.751201 -2.394969 -7.451142 77.363426 -7.219985 9.642244 -40.322708 -6.344846 -4.709987 63.151039 0.000000 0.000000 0.000000 -11.702183 -0.833601 -2.147717 -0.548731 15.559088 0.271758 -147.380974 -11.486964 50.463456 0.000000 0.000000 0.000000 4.991656 9.839754 3.896182 -9.443339 -31.528440 5.971311 164.511502 28.322694 148.608848 0.000000 0.000000 0.000000
-0.128948 0.210751 -0.665418 -4.065043 2.637067 -69.609455 25.790208 7.127044 -54.242377 -13.156834 4.074891 86.952664 2.848968 8.589572 10.714111 0.000000 0.000000 0.000000 -17.266718 -4.640670 -38.751128 8.928513 -2.659863 67.296143 -10.110656 -21.016408 16.322654 0.000000 0.000000 0.000000 -0.432461 0.277277 -8.644523 -2.288865 -9.434526 84.324891 -8.980714 7.686012 -47.277009 -5.305761 -4.710848 55.077613 0.000000 0.000000 0.000000 -15.628568 0.614192 -3.407390 -5.094067 15.783294 -0.366786 -141.928862 -18.892381 66.123371 0.000000 0.000000 0.000000 6.627895 8.916919 3.222373 -3.904288 -30.510822 3.739112 159.863501 35.743960 146.624551 0.000000 0.000000 0.000000
